<svg xmlns="http://www.w3.org/2000/svg" xmlns:xlink="http://www.w3.org/1999/xlink" viewBox="0 0 510.89 462.04"><defs><style>.cls-1{fill:url(#linear-gradient);}.cls-2{fill:url(#linear-gradient-2);}.cls-3{fill:url(#linear-gradient-3);}.cls-4{fill:url(#linear-gradient-4);}.cls-5{fill:url(#linear-gradient-5);}.cls-6{fill:url(#linear-gradient-6);}.cls-7{fill:url(#linear-gradient-7);}.cls-8{fill:url(#linear-gradient-8);}.cls-9{fill:url(#linear-gradient-9);}.cls-10{fill:url(#linear-gradient-10);}.cls-11{fill:url(#linear-gradient-11);}</style><linearGradient id="linear-gradient" x1="-109.61" y1="477.06" x2="625.74" y2="89.13" gradientUnits="userSpaceOnUse"><stop offset="0" stop-color="#fff"/><stop offset="1" stop-color="#b17f4a"/></linearGradient><linearGradient id="linear-gradient-2" x1="-56.22" y1="578.27" x2="679.13" y2="190.34" xlink:href="#linear-gradient"/><linearGradient id="linear-gradient-3" x1="-143.24" y1="413.3" x2="592.1" y2="25.37" xlink:href="#linear-gradient"/><linearGradient id="linear-gradient-4" x1="-215.96" y1="275.46" x2="519.38" y2="-112.47" xlink:href="#linear-gradient"/><linearGradient id="linear-gradient-5" x1="-221.66" y1="264.67" x2="513.69" y2="-123.26" xlink:href="#linear-gradient"/><linearGradient id="linear-gradient-6" x1="-218.03" y1="271.54" x2="517.31" y2="-116.39" xlink:href="#linear-gradient"/><linearGradient id="linear-gradient-7" x1="-218.04" y1="271.52" x2="517.3" y2="-116.42" xlink:href="#linear-gradient"/><linearGradient id="linear-gradient-8" x1="-157.51" y1="386.26" x2="577.83" y2="-1.68" xlink:href="#linear-gradient"/><linearGradient id="linear-gradient-9" x1="-75.5" y1="541.72" x2="659.85" y2="153.79" xlink:href="#linear-gradient"/><linearGradient id="linear-gradient-10" x1="-111.6" y1="473.29" x2="623.75" y2="85.36" xlink:href="#linear-gradient"/><linearGradient id="linear-gradient-11" x1="-173.21" y1="356.5" x2="562.13" y2="-31.44" xlink:href="#linear-gradient"/></defs><g id="Layer_2" data-name="Layer 2"><g id="Layer_2-2" data-name="Layer 2"><path class="cls-1" d="M246,388.48l-23.35,29.15c-12.7-7.73-25.15-20.12-34-40C150.25,292,131,322.09,92.31,416.57,74.16,461,34.13,463.8,29.74,461.46-4,443.51.16,373.78.16,373.78c-.78-42.44,9.66-76.58,11.2-76.35,1.17.18-6.9,70.84,1.31,96.76,9.06,28.59,21.83,53,32.39,46.08,27.58-18.18,66.75-166.85,107.85-154.63,36.61,10.89,43,61.09,74.77,89.21A120.64,120.64,0,0,0,246,388.48Z"/><path class="cls-2" d="M510.7,305.27c-2.18-26.65-24.07-53.24-50.55-59.74-16.69-4.1-32.39.47-52.08,10-52.86,25.46-90.79,62.37-146.3,131.73-22.69,28.37-23.88,31.41-55.91,62-1.48,1.42,21.45-6.12,36-20.68,0,0,50.4,4.51,71.23,2.3,10.7-1.13,50.55,2.3,137.87-42.12C472.47,377.81,514,345.75,510.7,305.27Zm-39.37,27.6c-5.3,27.52-87.67,59.07-185.45,67.62C342.79,335.55,401.7,287.35,441.2,299.4,454.93,303.59,474.67,315.47,471.33,332.87Z"/></g><g id="Layer_3" data-name="Layer 3"><path class="cls-3" d="M288,276l.17-73.36s5.71-3.58,6-6,0-18.89,0-18.89h-9.79V116.88s5.2-4.94,5.2-8.09.08-15.83.08-15.83-6.81-3.49-7.74-5.95-.34-9.38-.34-9.38l.34-13.52s.93-8.18,0-9.43c.12-1.52.18-5.57-2.14-8.66l-.1-.15a6.54,6.54,0,0,1-.48-.73A12.35,12.35,0,0,1,277.26,38s.06-.6.23-1.44a11.59,11.59,0,0,1,1.43-4.1,11.16,11.16,0,0,0,1.23-3.52c.39-1.82.57-3.55.57-3.55s-.69-5.41-4.3-6.93a9.18,9.18,0,0,0-3.12-1c-.18,0-.2.08-.2.13s0-.12-.22-.13a9.31,9.31,0,0,0-3.11,1c-3.61,1.52-4.3,6.93-4.3,6.93s.18,1.73.57,3.55a10.92,10.92,0,0,0,1.23,3.52,11.59,11.59,0,0,1,1.43,4.1c.17.84.23,1.44.23,1.44A12.35,12.35,0,0,1,267,45.14a6.54,6.54,0,0,1-.48.73l-.1.15c-2.32,3.09-2.26,7.14-2.15,8.66-.94,1.25,0,9.43,0,9.43l.34,13.52s.59,6.91-.34,9.38S256.54,93,256.54,93s.09,12.67.09,15.83,5.19,8.09,5.19,8.09v60.85H252s-.25,16.41,0,18.89,6,6,6,6l.17,73.36H243.44v29.6l7,4.61q-.27,36.3-.52,72.61l.22-.06c16.35-20.3,31.2-37.74,45.41-52.89q.14-9.82.25-19.66l7-4.61V276ZM268.64,85.24H267.1V73.66c-.05-1.29.29-2.32.65-2.43s.92.91.89,2.43Zm4,33.36c.81-.13,1.83.91,1.78,2.43v11.58h-3.09V121C271.21,119.74,271.9,118.71,272.62,118.6Zm-.24,84.63c.81-.18,1.82,1.25,1.76,3.34v15.91h-3.05V206.57C271,204.8,271.68,203.38,272.38,203.23Zm3.56,132.1H269.3V314.65c-.21-2.29,1.28-4.14,2.81-4.34,1.75-.23,3.95,1.63,3.83,4.34Zm2.73-250.09h-1.55V73.66c-.05-1.29.3-2.32.66-2.43s.92.91.89,2.43Z"/><path class="cls-4" d="M273.14,17.36l.16.09c-.18,0-.2.08-.2.13s0-.12-.22-.13l.16-.09,0,0Z"/><path class="cls-5" d="M276.76,3.66a3.66,3.66,0,1,1-7.32,0V3.44a3,3,0,1,0,3-3.22,2.77,2.77,0,0,0-1,.18A3.57,3.57,0,0,1,273.1,0,3.66,3.66,0,0,1,276.76,3.66Z"/><polygon class="cls-6" points="273.99 15.97 272.91 17.33 272.91 7.76 273.99 15.97"/><polygon class="cls-7" points="271.77 15.97 272.85 7.76 272.85 17.33 271.77 15.97"/><path class="cls-8" d="M361.42,123c0-.32-.21-.64-.85-1a3.33,3.33,0,0,0-1.91-.53c-1,0-2.66.75-4.9,2.24a28,28,0,0,0-5,4.15A28,28,0,0,0,357,125.4c3-1.28,4.47-2.13,4.47-2.45m5-2.87A9.72,9.72,0,0,1,365,123.7a8.72,8.72,0,0,1-2.66,3.61A35,35,0,0,1,341.63,134a18.67,18.67,0,0,1-5.74-1.49,17.87,17.87,0,0,1-4.58-2.24,8.48,8.48,0,0,0-1-.85c-.42-.42-.42-.53-.21-.64a17.88,17.88,0,0,1,1.81.11,49.21,49.21,0,0,0,12.34-.53,19.58,19.58,0,0,0,4.36-4.47c2.24-6.6,3.41-10.11,3.41-10.53a5.93,5.93,0,0,0-1-3.3c-.53-1-1.17-1.39-1.81-1.39a4.94,4.94,0,0,0-3.72,1.92,6.1,6.1,0,0,1-1.07.85c-.1,0-.1-.43-.1-1.49a6.54,6.54,0,0,1,2-4.79,5.5,5.5,0,0,1,3.94-2c3,0,4.57,2.13,4.57,6.6,0,3.08-1.38,7.23-4,12.34,4.25-3.94,7.66-5.85,10.32-5.85a6.79,6.79,0,0,1,3,1c1.49.85,2.23,1.8,2.23,2.87"/><path class="cls-9" d="M112.56,439a9.3,9.3,0,0,0-.09-3.67c-.39-1.45-1-2.13-1.84-2.13-.48,0-1.16.39-2,1.36a3.52,3.52,0,0,0-1.36,2c0,1.16,1.74,1.94,5.31,2.42m7.73,0a9.33,9.33,0,0,0-5.21-4.73,17.52,17.52,0,0,1-.58,5.12c.38.09,2.22.38,5.5.77a.45.45,0,0,0,.48,0,1.38,1.38,0,0,0-.19-1.16m2.51-2.32a2.78,2.78,0,0,1,.2,1,10.81,10.81,0,0,1-1.26,4.34c-.77,1.65-1.55,2.51-2.22,2.51.58,0-1.64-.38-6.47-1.15a26.83,26.83,0,0,1-5.6,7.14A33.78,33.78,0,0,1,100,455c-.77.39-1.26.87-1.26,1.26s.29.67.87.87a24.59,24.59,0,0,0,9.08.19c1.74-.19,5.89-1.06,12.36-2.61a5.91,5.91,0,0,1,1.26-.19c0,.19-1.26,1.06-3.77,2.8a24.37,24.37,0,0,1-5.79,2.61A31.9,31.9,0,0,1,102.42,462c-3.67,0-5.5-1.25-5.5-3.67A8.41,8.41,0,0,1,100,452c1.83-1.16,3.57-2.42,5.31-3.67a22.86,22.86,0,0,0,5.8-5.41c-4-.68-5.9-2.22-5.9-4.54a13.37,13.37,0,0,1,1.55-5.79c-.68-2.42-.58-4.16.48-5.12a3.8,3.8,0,0,1,2.71-1.16,7.11,7.11,0,0,1,3.57,1.06q7,3.76,9.27,9.27"/><path class="cls-10" d="M349.42,221.78c43.13-21.09,87.94-42.92,134.7-65.84,2-.78,3.12-1.19,3.44-.93s.4,1.13,0,2.94c-1.8,5.47-3.23,8.84-4.3,9.83q-58.8,28.83-138,70.58a91.3,91.3,0,0,1,4.21-16.58"/><path class="cls-11" d="M108.12,190c3,0,5.66,1.67,8,5.14s3.86,8,4.89,13.65a4.08,4.08,0,0,1,.13,1c.13.13.13.13.26,0a3.4,3.4,0,0,1,.39-1,122,122,0,0,1,3.47-15.06c1.93-4.76,4.12-7.08,6.44-7.08,1.28,0,2.44.77,3.6,2.44a6,6,0,0,1,1.67,3.48,8.14,8.14,0,0,1-.64,2.57c-.38,1.55-1,2.32-1.54,2.32-.26,0-.9-.64-1.81-1.8a3.53,3.53,0,0,0-2.7-1.67c-2.06,0-4.12,4.89-5.79,14.8-.9,4.38-1.68,7.47-2.7,9.14-.65,1.29-1.16,1.93-1.68,1.93s-.64-.64-.64-1.67c0-1.81-1-5.15-3-10.17s-3.35-7.47-4.25-7.47a1.25,1.25,0,0,0-1.16.52c-.13.38-.51.64-1.42.64s-1.93-.64-3.47-2.06-2.06-2.32-2.06-3.09c0-.39.51-1.54,1.8-3.6s1.93-3,2.19-3"/></g></g></svg>